<?xml version="1.0" encoding="UTF-8"?>
<svg width="60px" height="51px" viewBox="0 0 60 51" version="1.1" xmlns="http://www.w3.org/2000/svg" xmlns:xlink="http://www.w3.org/1999/xlink">
    <!-- Generator: Sketch 47 (45396) - http://www.bohemiancoding.com/sketch -->
    <title>logo_migration-data-portal</title>
    <desc>Created with Sketch.</desc>
    <defs/>
    <g id="Page-1" stroke="none" stroke-width="1" fill="none" fill-rule="evenodd">
        <g id="logo_migration-data-portal" fill-rule="nonzero">
            <g id="Group">
                <g id="path-1" transform="translate(42.000000, 8.000000)" fill="#286E93">
                    <circle id="Oval" cx="5.7" cy="5.9" r="5.5"/>
                </g>
                <g id="path-2" transform="translate(27.000000, 35.000000)" fill="#286E93">
                    <circle id="Oval" cx="6" cy="5.6" r="5.5"/>
                </g>
                <g id="path-3" transform="translate(0.000000, 11.000000)" fill="#286E93">
                    <circle id="Oval" cx="6.3" cy="5.7" r="5.5"/>
                </g>
                <g transform="translate(5.000000, 0.000000)" id="Shape" fill="#276E93">
                    <path d="M16.9,37.5 C18.5,38.5 20,39.4 21.6,40.2 C21.6,39.6 21.7,39.1 21.9,38.6 C20.5,37.9 19.1,37.1 17.7,36.2 C11.7,32.3 6.7,27.5 3.8,22.7 C3.8,22.7 3.8,22.7 3.8,22.7 C3.3,22.9 2.8,23.1 2.2,23.1 C2.3,23.2 2.3,23.4 2.4,23.5 C5.5,28.5 10.6,33.5 16.9,37.5 Z"/>
                    <path d="M49.4,23.2 C49.2,21.2 48.8,19.2 48.2,17.4 C47.9,17.9 47.4,18.4 47,18.9 C47.4,20.4 47.7,21.9 47.9,23.4 C47.9,23.7 47.9,24 48,24.2 C48.4,31.1 45.7,37.4 41.2,41.9 C40.4,38.9 39.2,35.7 37.9,32.3 C38.4,31.8 38.6,31.1 38.6,30.4 C38.5,29.8 38.3,29.3 37.9,28.9 C39.2,25.9 40.3,23 41.1,20.2 C40.6,20 40.1,19.8 39.6,19.5 C38.8,22.3 37.7,25.3 36.4,28.2 C36.3,28.2 36.3,28.2 36.2,28.2 C35.1,25.8 33.9,23.5 32.7,21.1 C31.5,18.8 30.2,16.6 28.9,14.5 C29,14.3 29.1,14.2 29.2,14 C31.8,14.2 34.2,14.6 36.6,15 C36.5,14.6 36.5,14.2 36.5,13.8 C36.5,13.6 36.5,13.5 36.5,13.3 C34.2,12.9 31.8,12.5 29.3,12.3 C29,11.3 27.9,10.5 26.8,10.6 C26.7,10.6 26.7,10.6 26.6,10.6 C24.5,7.5 22.4,4.7 20.4,2.3 C21.2,2.1 22,2 22.9,1.9 C29.1,1.4 35.1,3.3 39.9,7.2 C40.1,7.4 40.3,7.5 40.5,7.7 C41.1,7.5 41.7,7.3 42.3,7.2 C41.9,6.8 41.4,6.3 40.9,5.9 C35.8,1.6 29.4,-0.4 22.8,0.2 C15.2,0.9 8.7,4.9 4.6,10.6 C5.1,10.9 5.5,11.2 5.9,11.5 C8.9,7.2 13.4,4 18.7,2.5 C20.8,4.9 23.1,7.9 25.3,11.2 C25.2,11.4 25.1,11.5 25,11.7 C18.4,11.4 12.3,11.9 7.2,12.9 C7.5,13.4 7.7,13.9 7.9,14.4 C12.9,13.4 18.7,13 24.9,13.2 C25.2,14.3 26.2,15.1 27.4,15 C27.6,15 27.7,15 27.8,14.9 C29,16.9 30.3,19.1 31.5,21.3 C32.8,23.7 33.9,25.9 34.9,28.1 C34.3,28.6 34,29.3 34,30.2 C34.1,30.8 34.3,31.3 34.7,31.7 C34.1,33 33.4,34.2 32.8,35.4 C33.2,35.8 33.6,36.3 33.9,36.8 C34.7,35.4 35.5,34 36.2,32.5 C36.4,32.5 36.5,32.5 36.7,32.5 C36.7,32.5 36.8,32.5 36.8,32.5 C38.3,36.2 39.5,39.6 40.2,42.6 C40.1,42.7 40.1,42.7 40,42.8 C38.3,42.9 36.4,42.8 34.5,42.5 C34.3,43 34,43.5 33.7,44 C35.1,44.3 36.5,44.4 37.8,44.5 C34.7,46.5 31.1,47.8 27.1,48.2 C26.7,48.2 26.4,48.3 26,48.3 C26.4,47.8 26.9,47.3 27.3,46.7 C26.7,46.6 26.1,46.4 25.6,46.2 C25,46.9 24.4,47.6 23.7,48.3 C12.3,47.7 2.9,38.8 1.8,27.1 C1.7,25.7 1.7,24.2 1.8,22.9 C1.7,22.9 1.7,22.9 1.6,22.9 C1.1,22.9 0.7,22.8 0.2,22.7 C0.1,23.9 0.1,25.1 0.1,26.3 C0.1,26.6 0.1,26.9 0.2,27.2 C1.4,40.8 13.5,51 27.1,49.8 C40.5,48.9 50.6,37 49.4,23.2 Z"/>
                </g>
            </g>
        </g>
    </g>
</svg>